<svg aria-hidden="true" style="position: absolute; width: 0; height: 0; overflow: hidden;" version="1.1" xmlns="http://www.w3.org/2000/svg" xmlns:xlink="http://www.w3.org/1999/xlink">
<defs>
<!-- arrow -->
<symbol id="arrow" viewBox="0 0 32 32">
<path d="M31.489 8.129l-1.048-1.056c-0.33-0.33-0.769-0.511-1.238-0.511s-0.908 0.182-1.238 0.511l-11.957 11.958-11.971-11.971c-0.329-0.33-0.769-0.511-1.238-0.511s-0.909 0.181-1.238 0.511l-1.048 1.049c-0.683 0.682-0.683 1.793 0 2.475l14.253 14.304c0.329 0.329 0.768 0.561 1.241 0.561h0.005c0.469 0 0.908-0.232 1.237-0.561l14.24-14.265c0.33-0.329 0.511-0.782 0.511-1.25s-0.182-0.915-0.511-1.244z"></path>
</symbol>

<!-- tel -->
<symbol id="call" viewBox="0 0 32 32">
<path d="M31.16 24.686l-6.477-4.319c-0.822-0.544-1.924-0.365-2.531 0.411l-1.887 2.426c-0.242 0.32-0.683 0.412-1.034 0.218l-0.359-0.198c-1.19-0.648-2.67-1.456-5.652-4.439s-3.791-4.465-4.44-5.652l-0.197-0.359c-0.198-0.351-0.107-0.793 0.213-1.038l2.424-1.886c0.776-0.608 0.955-1.709 0.412-2.531l-4.319-6.477c-0.557-0.837-1.673-1.089-2.535-0.571l-2.708 1.627c-0.851 0.5-1.475 1.311-1.742 2.261-0.975 3.554-0.242 9.687 8.793 18.722 7.187 7.186 12.537 9.119 16.214 9.119 0.846 0.004 1.689-0.106 2.506-0.327 0.951-0.266 1.761-0.891 2.261-1.742l1.629-2.707c0.519-0.862 0.268-1.979-0.57-2.536zM30.812 26.675l-1.625 2.708c-0.359 0.614-0.942 1.066-1.626 1.261-3.281 0.901-9.012 0.155-17.685-8.519s-9.419-14.404-8.519-17.685c0.195-0.685 0.647-1.269 1.262-1.629l2.708-1.625c0.374-0.225 0.859-0.116 1.1 0.247l4.316 6.476c0.236 0.357 0.158 0.835-0.178 1.099l-2.425 1.886c-0.738 0.564-0.949 1.585-0.494 2.395l0.193 0.35c0.682 1.25 1.529 2.805 4.622 5.898s4.648 3.94 5.897 4.622l0.35 0.193c0.81 0.454 1.831 0.244 2.395-0.494l1.886-2.425c0.264-0.336 0.742-0.414 1.099-0.178l6.476 4.319c0.364 0.241 0.473 0.726 0.247 1.1z"></path>
<path d="M18.132 5.336c5.004 0.006 9.060 4.061 9.065 9.065 0 0.295 0.239 0.533 0.533 0.533s0.533-0.239 0.533-0.533c-0.006-5.593-4.539-10.126-10.132-10.132-0.295 0-0.533 0.239-0.533 0.533s0.239 0.533 0.533 0.533z"></path>
<path d="M18.132 8.536c3.238 0.004 5.862 2.628 5.866 5.866 0 0.295 0.239 0.533 0.533 0.533s0.533-0.239 0.533-0.533c-0.004-3.827-3.106-6.928-6.932-6.932-0.295 0-0.533 0.239-0.533 0.533s0.239 0.533 0.533 0.533z"></path>
<path d="M18.132 11.735c1.472 0.002 2.664 1.194 2.666 2.666 0 0.295 0.239 0.533 0.533 0.533s0.533-0.239 0.533-0.533c-0.002-2.061-1.672-3.73-3.733-3.733-0.295 0-0.533 0.239-0.533 0.533s0.239 0.533 0.533 0.533z"></path>
</symbol>

<!-- slider -->
<symbol id="slider" viewBox="0 0 32 32">
<path fill="#fff" style="fill: var(--color1, #fff)" d="M18.286 16.036c0 1.262-1.023 2.286-2.286 2.286s-2.286-1.023-2.286-2.286c0-1.262 1.023-2.286 2.286-2.286s2.286 1.023 2.286 2.286z"></path>
<path fill="#fff" style="fill: var(--color1, #fff)" opacity="0.5" d="M4.571 16.036c0 1.262-1.023 2.286-2.286 2.286s-2.286-1.023-2.286-2.286c0-1.262 1.023-2.286 2.286-2.286s2.286 1.023 2.286 2.286z"></path>
<path fill="#fff" style="fill: var(--color1, #fff)" opacity="0.5" d="M32 16.036c0 1.262-1.023 2.286-2.286 2.286s-2.286-1.023-2.286-2.286c0-1.262 1.023-2.286 2.286-2.286s2.286 1.023 2.286 2.286z"></path>
</symbol>

<!-- burger-menu -->
<symbol id="burger-menu" viewBox="0 0 32 32">
<path  d="M6.4 11.733v-2.133h19.2v2.133h-19.2zM6.4 17.067h19.2v-2.133h-19.2v2.133zM6.4 22.4h19.2v-2.133h-19.2v2.133z"></path>
</symbol>

<!-- close-btn -->
<symbol id="close-btn" viewBox="0 0 32 32">
<path d="M26.667 7.303l-1.97-1.97-7.808 7.808-7.808-7.808-1.97 1.97 7.808 7.808-7.808 7.808 1.97 1.97 7.808-7.808 7.808 7.808 1.97-1.97-7.808-7.808 7.808-7.808z"></path>
</symbol>

<!-- facebook -->
<symbol id="facebook" viewBox="0 0 32 32">
<path d="M21.329 5.313h2.921v-5.088c-0.504-0.069-2.237-0.225-4.256-0.225-4.212 0-7.097 2.649-7.097 7.519v4.481h-4.648v5.688h4.648v14.312h5.699v-14.311h4.46l0.708-5.688h-5.169v-3.919c0.001-1.644 0.444-2.769 2.735-2.769z"></path>
</symbol>

<!-- twitter -->
<symbol id="twitter" viewBox="0 0 32 32">
<path d="M32 6.078c-1.19 0.522-2.458 0.868-3.78 1.036 1.36-0.812 2.398-2.088 2.886-3.626-1.268 0.756-2.668 1.29-4.16 1.588-1.204-1.282-2.92-2.076-4.792-2.076-3.632 0-6.556 2.948-6.556 6.562 0 0.52 0.044 1.020 0.152 1.496-5.454-0.266-10.28-2.88-13.522-6.862-0.566 0.982-0.898 2.106-0.898 3.316 0 2.272 1.17 4.286 2.914 5.452-1.054-0.020-2.088-0.326-2.964-0.808 0 0.020 0 0.046 0 0.072 0 3.188 2.274 5.836 5.256 6.446-0.534 0.146-1.116 0.216-1.72 0.216-0.42 0-0.844-0.024-1.242-0.112 0.85 2.598 3.262 4.508 6.13 4.57-2.232 1.746-5.066 2.798-8.134 2.798-0.538 0-1.054-0.024-1.57-0.090 2.906 1.874 6.35 2.944 10.064 2.944 12.072 0 18.672-10 18.672-18.668 0-0.29-0.010-0.57-0.024-0.848 1.302-0.924 2.396-2.078 3.288-3.406z"></path>
</symbol>

<!-- instagram -->
<symbol id="instagram" viewBox="0 0 32 32">
<path d="M31.969 9.408c-0.075-1.7-0.35-2.869-0.744-3.882-0.406-1.075-1.032-2.038-1.851-2.838-0.8-0.813-1.769-1.444-2.832-1.844-1.019-0.394-2.182-0.669-3.882-0.744-1.713-0.081-2.257-0.1-6.601-0.1s-4.888 0.019-6.595 0.094c-1.7 0.075-2.869 0.35-3.882 0.744-1.075 0.406-2.038 1.031-2.838 1.85-0.813 0.8-1.444 1.769-1.844 2.832-0.394 1.019-0.669 2.182-0.744 3.882-0.081 1.713-0.1 2.257-0.1 6.601s0.019 4.888 0.094 6.595c0.075 1.7 0.35 2.869 0.744 3.882 0.406 1.075 1.038 2.038 1.85 2.838 0.8 0.813 1.769 1.444 2.832 1.844 1.019 0.394 2.182 0.669 3.882 0.744 1.706 0.075 2.25 0.094 6.595 0.094s4.888-0.019 6.595-0.094c1.7-0.075 2.869-0.35 3.882-0.744 2.151-0.832 3.851-2.532 4.682-4.682 0.394-1.019 0.669-2.182 0.744-3.882 0.075-1.707 0.094-2.251 0.094-6.595s-0.006-4.888-0.081-6.595zM29.087 22.473c-0.069 1.563-0.331 2.407-0.55 2.969-0.538 1.394-1.644 2.5-3.038 3.038-0.563 0.219-1.413 0.481-2.969 0.55-1.688 0.075-2.194 0.094-6.464 0.094s-4.782-0.019-6.464-0.094c-1.563-0.069-2.407-0.331-2.969-0.55-0.694-0.256-1.325-0.663-1.838-1.194-0.531-0.519-0.938-1.144-1.194-1.838-0.219-0.563-0.481-1.413-0.55-2.969-0.075-1.688-0.094-2.194-0.094-6.464s0.019-4.782 0.094-6.464c0.069-1.563 0.331-2.407 0.55-2.969 0.256-0.694 0.663-1.325 1.2-1.838 0.519-0.531 1.144-0.938 1.838-1.194 0.563-0.219 1.413-0.481 2.969-0.55 1.688-0.075 2.194-0.094 6.464-0.094 4.276 0 4.782 0.019 6.464 0.094 1.563 0.069 2.407 0.331 2.969 0.55 0.694 0.256 1.325 0.662 1.838 1.194 0.531 0.519 0.938 1.144 1.194 1.838 0.219 0.563 0.481 1.413 0.55 2.969 0.075 1.688 0.094 2.194 0.094 6.464s-0.019 4.77-0.094 6.458z"></path>
<path d="M16.059 7.783c-4.538 0-8.22 3.682-8.22 8.22s3.682 8.22 8.22 8.22c4.538 0 8.22-3.682 8.22-8.22s-3.682-8.22-8.22-8.22zM16.059 21.335c-2.944 0-5.332-2.388-5.332-5.332s2.388-5.332 5.332-5.332c2.944 0 5.332 2.388 5.332 5.332s-2.388 5.332-5.332 5.332z"></path>
<path d="M26.524 7.458c0 1.060-0.859 1.919-1.919 1.919s-1.919-0.859-1.919-1.919c0-1.060 0.859-1.919 1.919-1.919s1.919 0.859 1.919 1.919z"></path>
</symbol>

<!-- logo -->
<symbol id="logo" viewBox="0 0 32 32">
<path fill="#ffd600" style="fill: var(--color3, #ffd600)" d="M31.052 14.577c-0.297 0-1.425 0.416-2.019 0.654-0.059-0.238-0.297-0.416-0.594-0.416s-0.594 0.178-0.594 0.416l-1.128-0.178c-0.178-2.439-1.128-4.581-2.613-6.306l0.653-0.952c0.178 0.119 0.534 0.119 0.713-0.119 0.238-0.238 0.297-0.535 0.119-0.714 0.594-0.238 1.722-0.714 1.9-0.952 0.238-0.297 0.059-0.892-0.356-1.368-0.475-0.416-1.069-0.595-1.366-0.357-0.238 0.178-0.712 1.309-0.95 1.904-0.178-0.119-0.534-0.059-0.713 0.119-0.238 0.238-0.297 0.535-0.119 0.714l-0.95 0.654c-1.722-1.487-3.919-2.439-6.294-2.618l-0.178-1.13c0.238-0.059 0.416-0.297 0.416-0.595s-0.178-0.535-0.416-0.595c0.238-0.595 0.653-1.725 0.653-2.023-0.059-0.416-0.594-0.714-1.247-0.714s-1.188 0.297-1.247 0.714c0 0.297 0.416 1.428 0.653 2.023-0.238 0.059-0.416 0.297-0.416 0.595s0.178 0.595 0.416 0.595l-0.178 1.13c-2.434 0.178-4.572 1.13-6.294 2.618l-0.95-0.654c0.119-0.178 0.119-0.535-0.119-0.714-0.238-0.238-0.534-0.297-0.713-0.119-0.237-0.595-0.713-1.666-0.95-1.904-0.297-0.238-0.891-0.059-1.306 0.416-0.475 0.416-0.653 1.011-0.416 1.368 0.178 0.238 1.306 0.714 1.9 0.952-0.119 0.178-0.059 0.535 0.119 0.714 0.237 0.238 0.534 0.297 0.713 0.119l0.653 0.952c-1.484 1.725-2.434 3.926-2.613 6.306l-1.128 0.178c-0.059-0.238-0.297-0.416-0.594-0.416s-0.534 0.178-0.594 0.416c-0.594-0.238-1.722-0.654-2.019-0.654-0.416 0.059-0.713 0.595-0.713 1.249s0.297 1.19 0.713 1.249c0.297 0 1.425-0.416 2.019-0.654 0.059 0.238 0.297 0.416 0.594 0.416s0.594-0.178 0.594-0.416l1.128 0.178c0.178 2.439 1.128 4.581 2.613 6.306l-0.594 0.892c-0.178-0.119-0.534-0.119-0.713 0.119-0.237 0.238-0.297 0.535-0.119 0.714-0.594 0.238-1.663 0.714-1.9 0.952-0.238 0.297-0.059 0.892 0.356 1.368 0.475 0.476 1.069 0.654 1.366 0.357 0.237-0.178 0.713-1.309 0.95-1.904 0.178 0.119 0.534 0.059 0.713-0.119 0.238-0.238 0.297-0.535 0.119-0.714l0.95-0.654c1.722 1.487 3.919 2.439 6.294 2.618l0.178 1.13c-0.238 0.059-0.416 0.297-0.416 0.595s0.178 0.535 0.416 0.595c-0.238 0.595-0.653 1.725-0.653 2.023 0.059 0.416 0.594 0.714 1.247 0.714s1.188-0.297 1.247-0.714c0-0.297-0.416-1.428-0.653-2.023 0.238-0.059 0.416-0.297 0.416-0.595s-0.178-0.595-0.416-0.595l0.178-1.13c2.434-0.178 4.572-1.13 6.294-2.618l0.95 0.654c-0.119 0.178-0.119 0.535 0.119 0.714 0.238 0.238 0.534 0.297 0.713 0.119 0.238 0.595 0.713 1.725 0.95 1.904 0.297 0.238 0.891 0.059 1.366-0.357 0.475-0.476 0.653-1.071 0.356-1.368-0.178-0.238-1.306-0.714-1.9-0.952 0.119-0.178 0.059-0.535-0.119-0.714-0.238-0.238-0.534-0.297-0.712-0.119l-0.653-0.952c1.484-1.725 2.434-3.926 2.613-6.306l1.128-0.178c0.059 0.238 0.297 0.416 0.594 0.416s0.534-0.178 0.594-0.416c0.594 0.238 1.722 0.654 2.019 0.654 0.416-0.059 0.713-0.595 0.713-1.249-0.119-0.595-0.416-1.19-0.772-1.249zM6.707 16.243c-0.237 0-0.416-0.178-0.416-0.416s0.178-0.416 0.416-0.416c0.237 0 0.416 0.178 0.416 0.416s-0.178 0.416-0.416 0.416zM22.205 8.985c0.178-0.178 0.416-0.178 0.594 0s0.178 0.416 0 0.595c-0.178 0.178-0.416 0.178-0.594 0-0.119-0.178-0.119-0.416 0-0.595zM15.97 6.189c0.237 0 0.416 0.178 0.416 0.416s-0.178 0.416-0.416 0.416c-0.238 0-0.416-0.178-0.416-0.416s0.178-0.416 0.416-0.416zM9.142 8.985c0.178-0.178 0.416-0.178 0.594 0s0.178 0.416 0 0.595c-0.178 0.178-0.416 0.178-0.594 0-0.119-0.178-0.119-0.416 0-0.595zM10.211 10.71l0.475 0.476c0.119 0.119 0.238 0.119 0.356 0.059l0.653 0.654c-0.178 0.416 0 1.071 0.534 1.606 0.594 0.595 1.425 0.773 1.781 0.416-0.475 0.476-0.772 1.13-0.772 1.844v-0.178h-2.316c-0.059 0-0.119-0.059-0.119-0.178s0.059-0.178 0.119-0.178h2.434v-0.059c0-0.178-0.178-0.357-0.356-0.357h-2.316c-0.119 0-0.416 0.357-0.594 0.654h-0.713c-0.059-0.119-0.178-0.238-0.297-0.238h-0.772c0.119-1.666 0.772-3.272 1.9-4.521zM9.736 22.668c-0.178 0.178-0.416 0.178-0.594 0s-0.178-0.416 0-0.595c0.178-0.178 0.416-0.178 0.594 0s0.178 0.416 0 0.595zM10.211 20.942c-1.128-1.249-1.841-2.915-1.959-4.7h0.772c0.119 0 0.297-0.119 0.297-0.238h0.653c0.178 0.297 0.475 0.714 0.594 0.714h2.316c0.178 0 0.356-0.119 0.356-0.297v-0.119h-2.316c-0.059 0-0.119-0.059-0.119-0.178s0.059-0.178 0.119-0.178h2.434v-0.178c0 0.714 0.297 1.368 0.772 1.844-0.356-0.357-1.188-0.178-1.781 0.416-0.534 0.535-0.713 1.19-0.534 1.606l-0.653 0.654c-0.119-0.059-0.297-0.059-0.356 0.059l-0.594 0.595zM15.97 25.523c-0.238 0-0.416-0.178-0.416-0.416s0.178-0.416 0.416-0.416c0.237 0 0.416 0.178 0.416 0.416s-0.178 0.416-0.416 0.416zM22.799 22.668c-0.178 0.178-0.416 0.178-0.594 0s-0.178-0.416 0-0.595c0.178-0.178 0.416-0.178 0.594 0s0.178 0.416 0 0.595zM21.73 20.942l-0.475-0.476c-0.119-0.119-0.238-0.119-0.356-0.059l-0.653-0.654c0.178-0.416 0-1.071-0.534-1.606-0.594-0.595-1.425-0.773-1.781-0.416s-0.178 1.19 0.416 1.785c0.534 0.535 1.188 0.714 1.603 0.535l0.653 0.654c-0.059 0.119-0.059 0.297 0.059 0.357l0.475 0.476c-1.247 1.13-2.85 1.844-4.631 1.963v-0.773c0-0.119-0.119-0.297-0.238-0.297v-0.714c0.238-0.178 0.653-0.476 0.653-0.595v-2.32c0-0.178-0.178-0.357-0.356-0.357h-0.059v2.439c0 0.059-0.059 0.119-0.178 0.119s-0.178-0.059-0.178-0.119v-2.38h-0.356v2.38c0 0.059-0.059 0.119-0.178 0.119s-0.178-0.059-0.178-0.119v-2.38h-0.119c-0.178 0-0.297 0.178-0.297 0.357v2.32c0 0.119 0.416 0.416 0.713 0.595v0.654c-0.119 0.059-0.238 0.178-0.238 0.297v0.773c-1.781-0.119-3.444-0.833-4.691-1.963l0.475-0.476c0.119-0.119 0.119-0.238 0.059-0.357l0.653-0.654c0.416 0.178 1.069 0 1.603-0.535 0.594-0.595 0.772-1.428 0.416-1.785 0.475 0.476 1.128 0.773 1.841 0.773 1.484 0 2.613-1.19 2.613-2.618 0-1.487-1.188-2.618-2.613-2.618-0.713 0-1.366 0.297-1.841 0.773 0.356-0.357 0.178-1.19-0.416-1.785-0.534-0.535-1.188-0.714-1.603-0.535l-0.653-0.654c0.059-0.119 0.059-0.297-0.059-0.357l-0.475-0.476c1.247-1.13 2.91-1.844 4.691-1.963v0.773c0 0.119 0.119 0.297 0.238 0.297v0.654c-0.297 0.178-0.713 0.476-0.713 0.595v2.32c0 0.178 0.119 0.357 0.297 0.357h0.119v-2.499c0-0.059 0.059-0.119 0.178-0.119s0.178 0.059 0.178 0.119v2.439h0.356v-2.439c0-0.059 0.059-0.119 0.178-0.119s0.178 0.059 0.178 0.119v2.439h0.059c0.178 0 0.356-0.178 0.356-0.357v-2.32c0-0.119-0.356-0.416-0.653-0.595v-0.714c0.119-0.059 0.238-0.178 0.238-0.297v-0.773c1.781 0.119 3.384 0.833 4.631 1.904l-0.475 0.476c-0.119 0.119-0.119 0.238-0.059 0.357l-0.653 0.654c-0.416-0.178-1.069 0-1.603 0.535-0.594 0.595-0.772 1.428-0.416 1.785s1.188 0.178 1.781-0.416c0.534-0.535 0.712-1.19 0.534-1.606l0.653-0.654c0.119 0.059 0.297 0.059 0.356-0.059l0.475-0.476c1.128 1.249 1.841 2.855 1.959 4.64h-0.772c-0.119 0-0.297 0.119-0.297 0.238h-0.713c-0.178-0.238-0.475-0.654-0.594-0.654h-2.316c-0.178 0-0.356 0.178-0.356 0.357v0.059h2.375c0.059 0 0.119 0.059 0.119 0.178s-0.059 0.178-0.119 0.178h-2.375v0.297h2.375c0.059 0 0.119 0.059 0.119 0.178s-0.059 0.178-0.119 0.178h-2.375v0.119c0 0.178 0.178 0.297 0.356 0.297h2.316c0.119 0 0.416-0.416 0.594-0.714h0.653c0.059 0.119 0.178 0.238 0.297 0.238h0.772c-0.059 1.844-0.772 3.45-1.9 4.7zM14.308 15.826c0-0.892 0.713-1.666 1.663-1.666 0.891 0 1.663 0.714 1.663 1.666 0 0.892-0.712 1.666-1.663 1.666-0.891 0-1.663-0.714-1.663-1.666zM25.233 16.243c-0.238 0-0.416-0.178-0.416-0.416s0.178-0.416 0.416-0.416c0.238 0 0.416 0.178 0.416 0.416s-0.178 0.416-0.416 0.416z"></path>
</symbol>

<!-- location -->
<symbol id="location" viewBox="0 0 32 32">
<path d="M16 0c-6.203 0-11.25 5.047-11.25 11.25 0 2.096 0.581 4.141 1.679 5.916l8.93 14.391c0.171 0.276 0.472 0.443 0.797 0.443 0.003 0 0.005 0 0.007 0 0.327-0.003 0.629-0.175 0.797-0.456l8.703-14.53c1.038-1.737 1.587-3.73 1.587-5.764 0-6.203-5.047-11.25-11.25-11.25zM24.054 16.051l-7.912 13.21-8.119-13.084c-0.915-1.477-1.41-3.181-1.41-4.928 0-5.169 4.218-9.387 9.387-9.387s9.381 4.218 9.381 9.387c0 1.695-0.463 3.355-1.327 4.801z"></path>
<path d="M16 5.625c-3.102 0-5.625 2.523-5.625 5.625 0 3.082 2.482 5.625 5.625 5.625 3.181 0 5.625-2.577 5.625-5.625 0-3.102-2.523-5.625-5.625-5.625zM16 15.012c-2.079 0-3.762-1.69-3.762-3.762 0-2.068 1.695-3.763 3.762-3.763s3.756 1.695 3.756 3.763c0 2.043-1.645 3.762-3.756 3.762z"></path>
</symbol>

<!-- mail -->
<symbol id="mail" viewBox="0 0 32 32">
<path d="M29.188 4.75h-26.375c-1.554 0-2.813 1.266-2.813 2.813v16.875c0 1.555 1.268 2.813 2.813 2.813h26.375c1.541 0 2.813-1.252 2.813-2.813v-16.875c0-1.543-1.254-2.813-2.813-2.813zM28.794 6.625c-0.575 0.572-10.463 10.408-10.805 10.748-0.531 0.531-1.238 0.824-1.989 0.824s-1.457-0.293-1.991-0.826c-0.23-0.228-10.009-9.957-10.803-10.746h25.587zM1.875 24.056v-16.111l8.102 8.060-8.102 8.051zM3.208 25.375l8.099-8.048 1.379 1.371c0.885 0.885 2.063 1.373 3.315 1.373s2.429-0.488 3.313-1.371l1.38-1.373 8.099 8.048h-25.585zM30.125 24.056l-8.102-8.051 8.102-8.060v16.111z"></path>
</symbol>

<!-- rectangle -->
<symbol id="rectangle" viewBox="0 0 33 32">
<path  stroke-miterlimit="4" stroke-width="1.8581" d="M10.889 10.329h13.493c0.285 0 0.516 0.231 0.516 0.516v10.259c0 0.285-0.231 0.516-0.516 0.516h-13.493c-0.285 0-0.516-0.231-0.516-0.516v-10.259c0-0.285 0.231-0.516 0.516-0.516z"></path>
</symbol>


</defs>
</svg>
